<mxfile host="app.diagrams.net" modified="2024-03-17T17:26:44.175Z" agent="Mozilla/5.0 (X11; Linux x86_64) AppleWebKit/537.36 (KHTML, like Gecko) Chrome/122.0.0.0 Safari/537.36" etag="xbFIsVWoKK4Hjiy9owZb" version="24.0.7" type="github" pages="2">
  <diagram id="tvbRQc4zJcMQ8TO2dYbx" name="Page-1">
    <mxGraphModel dx="3134" dy="793" grid="1" gridSize="10" guides="1" tooltips="1" connect="1" arrows="1" fold="1" page="1" pageScale="1" pageWidth="850" pageHeight="1100" math="0" shadow="0">
      <root>
        <mxCell id="0" />
        <mxCell id="1" parent="0" />
        <mxCell id="v9dQhcSeE_KAYO5fBS5s-33" value="&lt;font style=&quot;line-height: 120%&quot; face=&quot;Myriad Pro Condensed&quot;&gt;&lt;span style=&quot;font-size: 16px&quot;&gt;Let&#39;s use this Connection ID (CID) for now:&amp;nbsp; &amp;nbsp; &amp;nbsp; &amp;nbsp; &amp;nbsp; &amp;nbsp; &amp;nbsp;&lt;/span&gt;&lt;br&gt;&lt;/font&gt;" style="text;html=1;fillColor=none;align=left;verticalAlign=middle;whiteSpace=wrap;rounded=0;strokeWidth=2;" parent="1" vertex="1">
          <mxGeometry x="-390" y="160" width="130" height="40" as="geometry" />
        </mxCell>
        <mxCell id="v9dQhcSeE_KAYO5fBS5s-1" value="" style="endArrow=blockThin;dashed=1;html=1;dashPattern=1 3;strokeWidth=2;strokeColor=#B3B3B3;endFill=1;" parent="1" edge="1">
          <mxGeometry width="50" height="50" relative="1" as="geometry">
            <mxPoint x="-400" y="160" as="sourcePoint" />
            <mxPoint x="-400" y="400" as="targetPoint" />
          </mxGeometry>
        </mxCell>
        <mxCell id="v9dQhcSeE_KAYO5fBS5s-2" value="" style="endArrow=blockThin;dashed=1;html=1;dashPattern=1 3;strokeWidth=2;strokeColor=#B3B3B3;endFill=1;" parent="1" edge="1">
          <mxGeometry width="50" height="50" relative="1" as="geometry">
            <mxPoint x="-480" y="160" as="sourcePoint" />
            <mxPoint x="-480" y="400" as="targetPoint" />
          </mxGeometry>
        </mxCell>
        <mxCell id="v9dQhcSeE_KAYO5fBS5s-5" value="" style="endArrow=classic;html=1;endFill=1;strokeWidth=3;shadow=0;strokeColor=#006ebb;" parent="1" edge="1">
          <mxGeometry width="50" height="50" relative="1" as="geometry">
            <mxPoint x="-480" y="160" as="sourcePoint" />
            <mxPoint x="-400" y="180" as="targetPoint" />
          </mxGeometry>
        </mxCell>
        <mxCell id="v9dQhcSeE_KAYO5fBS5s-7" value="" style="endArrow=classic;html=1;endFill=1;strokeWidth=3;shadow=0;strokeColor=#006ebb;" parent="1" edge="1">
          <mxGeometry width="50" height="50" relative="1" as="geometry">
            <mxPoint x="-400" y="185" as="sourcePoint" />
            <mxPoint x="-480" y="205" as="targetPoint" />
          </mxGeometry>
        </mxCell>
        <mxCell id="v9dQhcSeE_KAYO5fBS5s-8" value="" style="rounded=0;whiteSpace=wrap;html=1;fillColor=#d5e8d4;strokeColor=#82b366;" parent="1" vertex="1">
          <mxGeometry x="-302.25" y="183" width="8" height="10" as="geometry" />
        </mxCell>
        <mxCell id="v9dQhcSeE_KAYO5fBS5s-9" value="&lt;font style=&quot;font-size: 20px;&quot; face=&quot;Myriad Pro Condensed&quot;&gt;1&lt;br style=&quot;font-size: 20px;&quot;&gt;&lt;/font&gt;" style="text;html=1;strokeColor=none;fillColor=none;align=center;verticalAlign=middle;whiteSpace=wrap;rounded=0;dashed=1;dashPattern=1 4;fontSize=20;fontColor=#808080;" parent="1" vertex="1">
          <mxGeometry x="-520" y="175" width="30" height="20" as="geometry" />
        </mxCell>
        <mxCell id="v9dQhcSeE_KAYO5fBS5s-10" value="" style="endArrow=classic;html=1;endFill=1;strokeWidth=3;shadow=0;strokeColor=#006ebb;" parent="1" edge="1">
          <mxGeometry width="50" height="50" relative="1" as="geometry">
            <mxPoint x="-480" y="210" as="sourcePoint" />
            <mxPoint x="-400" y="230" as="targetPoint" />
          </mxGeometry>
        </mxCell>
        <mxCell id="v9dQhcSeE_KAYO5fBS5s-11" value="" style="rounded=0;whiteSpace=wrap;html=1;fillColor=#d5e8d4;strokeColor=#82b366;" parent="1" vertex="1">
          <mxGeometry x="-444" y="215" width="8" height="10" as="geometry" />
        </mxCell>
        <mxCell id="v9dQhcSeE_KAYO5fBS5s-13" value="" style="endArrow=classic;html=1;endFill=1;strokeWidth=3;shadow=0;strokeColor=#006ebb;" parent="1" edge="1">
          <mxGeometry width="50" height="50" relative="1" as="geometry">
            <mxPoint x="-400" y="235" as="sourcePoint" />
            <mxPoint x="-480" y="255" as="targetPoint" />
          </mxGeometry>
        </mxCell>
        <mxCell id="v9dQhcSeE_KAYO5fBS5s-14" value="" style="rounded=0;whiteSpace=wrap;html=1;fillColor=#d5e8d4;strokeColor=#82b366;" parent="1" vertex="1">
          <mxGeometry x="-444" y="240" width="8" height="10" as="geometry" />
        </mxCell>
        <mxCell id="v9dQhcSeE_KAYO5fBS5s-16" value="&lt;font style=&quot;font-size: 20px;&quot; face=&quot;Myriad Pro Condensed&quot;&gt;2&lt;br style=&quot;font-size: 20px;&quot;&gt;&lt;/font&gt;" style="text;html=1;strokeColor=none;fillColor=none;align=center;verticalAlign=middle;whiteSpace=wrap;rounded=0;dashed=1;dashPattern=1 4;fontSize=20;fontColor=#808080;" parent="1" vertex="1">
          <mxGeometry x="-520" y="225" width="30" height="20" as="geometry" />
        </mxCell>
        <mxCell id="v9dQhcSeE_KAYO5fBS5s-17" value="" style="endArrow=blockThin;dashed=1;html=1;dashPattern=1 3;strokeWidth=2;strokeColor=#B3B3B3;endFill=1;" parent="1" edge="1">
          <mxGeometry width="50" height="50" relative="1" as="geometry">
            <mxPoint x="-560" y="280" as="sourcePoint" />
            <mxPoint x="-560" y="400" as="targetPoint" />
          </mxGeometry>
        </mxCell>
        <mxCell id="v9dQhcSeE_KAYO5fBS5s-18" value="&lt;font face=&quot;Myriad Pro Condensed&quot; style=&quot;font-size: 16px;&quot;&gt;&lt;font style=&quot;font-size: 16px;&quot;&gt;server&lt;/font&gt;&lt;br style=&quot;font-size: 16px;&quot;&gt;&lt;/font&gt;" style="text;html=1;strokeColor=none;fillColor=none;align=center;verticalAlign=middle;whiteSpace=wrap;rounded=0;dashed=1;dashPattern=1 4;fontSize=16;fontColor=#808080;" parent="1" vertex="1">
          <mxGeometry x="-433" y="120" width="60" height="40" as="geometry" />
        </mxCell>
        <mxCell id="v9dQhcSeE_KAYO5fBS5s-19" value="&lt;font face=&quot;Myriad Pro Condensed&quot; style=&quot;font-size: 16px&quot;&gt;&lt;font style=&quot;font-size: 16px&quot;&gt;client&lt;br&gt;&lt;/font&gt;WiFi&lt;br style=&quot;font-size: 16px&quot;&gt;&lt;/font&gt;" style="text;html=1;strokeColor=none;fillColor=none;align=center;verticalAlign=bottom;whiteSpace=wrap;rounded=0;dashed=1;dashPattern=1 4;fontSize=16;fontColor=#808080;" parent="1" vertex="1">
          <mxGeometry x="-510" y="120" width="60" height="40" as="geometry" />
        </mxCell>
        <mxCell id="v9dQhcSeE_KAYO5fBS5s-20" value="&lt;font face=&quot;Myriad Pro Condensed&quot; style=&quot;font-size: 16px&quot;&gt;&lt;font style=&quot;font-size: 16px&quot;&gt;client&lt;br&gt;&lt;/font&gt;4G&lt;br style=&quot;font-size: 16px&quot;&gt;&lt;/font&gt;" style="text;html=1;strokeColor=none;fillColor=none;align=center;verticalAlign=bottom;whiteSpace=wrap;rounded=0;dashed=1;dashPattern=1 4;fontSize=16;fontColor=#808080;" parent="1" vertex="1">
          <mxGeometry x="-590" y="240" width="60" height="40" as="geometry" />
        </mxCell>
        <mxCell id="v9dQhcSeE_KAYO5fBS5s-22" value="" style="ellipse;whiteSpace=wrap;html=1;fillColor=#e1d5e7;strokeColor=#9673a6;" parent="1" vertex="1">
          <mxGeometry x="-309.25" y="234" width="10" height="10" as="geometry" />
        </mxCell>
        <mxCell id="v9dQhcSeE_KAYO5fBS5s-23" value="" style="triangle;whiteSpace=wrap;html=1;fillColor=#f8cecc;strokeColor=#b85450;" parent="1" vertex="1">
          <mxGeometry x="-285.25" y="234" width="7.5" height="10" as="geometry" />
        </mxCell>
        <mxCell id="v9dQhcSeE_KAYO5fBS5s-24" value="" style="endArrow=classic;html=1;endFill=1;strokeWidth=3;shadow=0;strokeColor=#006ebb;" parent="1" edge="1">
          <mxGeometry width="50" height="50" relative="1" as="geometry">
            <mxPoint x="-560" y="306" as="sourcePoint" />
            <mxPoint x="-400" y="336" as="targetPoint" />
          </mxGeometry>
        </mxCell>
        <mxCell id="v9dQhcSeE_KAYO5fBS5s-25" value="" style="endArrow=classic;html=1;endFill=1;strokeWidth=3;shadow=0;strokeColor=#006ebb;" parent="1" edge="1">
          <mxGeometry width="50" height="50" relative="1" as="geometry">
            <mxPoint x="-400" y="342" as="sourcePoint" />
            <mxPoint x="-560" y="372" as="targetPoint" />
          </mxGeometry>
        </mxCell>
        <mxCell id="v9dQhcSeE_KAYO5fBS5s-27" value="" style="ellipse;whiteSpace=wrap;html=1;fillColor=#e1d5e7;strokeColor=#9673a6;" parent="1" vertex="1">
          <mxGeometry x="-484" y="316" width="10" height="10" as="geometry" />
        </mxCell>
        <mxCell id="v9dQhcSeE_KAYO5fBS5s-29" value="" style="ellipse;whiteSpace=wrap;html=1;fillColor=#e1d5e7;strokeColor=#9673a6;" parent="1" vertex="1">
          <mxGeometry x="-484" y="352" width="10" height="10" as="geometry" />
        </mxCell>
        <mxCell id="v9dQhcSeE_KAYO5fBS5s-30" value="&lt;font style=&quot;font-size: 20px&quot; face=&quot;Myriad Pro Condensed&quot;&gt;N&lt;br style=&quot;font-size: 20px&quot;&gt;&lt;/font&gt;" style="text;html=1;strokeColor=none;fillColor=none;align=center;verticalAlign=middle;whiteSpace=wrap;rounded=0;dashed=1;dashPattern=1 4;fontSize=20;fontColor=#808080;" parent="1" vertex="1">
          <mxGeometry x="-590" y="326" width="30" height="20" as="geometry" />
        </mxCell>
        <mxCell id="v9dQhcSeE_KAYO5fBS5s-31" value="" style="endArrow=none;dashed=1;html=1;dashPattern=1 3;strokeWidth=2;" parent="1" edge="1">
          <mxGeometry width="50" height="50" relative="1" as="geometry">
            <mxPoint x="-440" y="304" as="sourcePoint" />
            <mxPoint x="-440" y="274" as="targetPoint" />
          </mxGeometry>
        </mxCell>
        <mxCell id="v9dQhcSeE_KAYO5fBS5s-32" value="&lt;font style=&quot;line-height: 120%&quot; face=&quot;Myriad Pro Condensed&quot;&gt;&lt;span style=&quot;font-size: 16px&quot;&gt;In the future, you can also use these CIDs:&amp;nbsp; &amp;nbsp; &amp;nbsp; &amp;nbsp; &amp;nbsp; &amp;nbsp; &amp;nbsp; &amp;nbsp; &amp;nbsp; &amp;nbsp;&amp;nbsp;&lt;/span&gt;&lt;br&gt;&lt;/font&gt;" style="text;html=1;fillColor=none;align=left;verticalAlign=middle;whiteSpace=wrap;rounded=0;strokeWidth=2;" parent="1" vertex="1">
          <mxGeometry x="-391" y="210" width="130" height="40" as="geometry" />
        </mxCell>
        <mxCell id="v9dQhcSeE_KAYO5fBS5s-35" value="" style="rounded=0;whiteSpace=wrap;html=1;fillColor=#d5e8d4;strokeColor=#82b366;" parent="1" vertex="1">
          <mxGeometry x="-444" y="189" width="8" height="10" as="geometry" />
        </mxCell>
        <mxCell id="v9dQhcSeE_KAYO5fBS5s-36" value="&lt;font style=&quot;line-height: 120%&quot; face=&quot;Myriad Pro Condensed&quot;&gt;&lt;span style=&quot;font-size: 16px&quot;&gt;I switched networks, so let&#39;s use the next CID:&amp;nbsp; &amp;nbsp;&lt;/span&gt;&lt;br&gt;&lt;/font&gt;" style="text;html=1;fillColor=none;align=left;verticalAlign=middle;whiteSpace=wrap;rounded=0;strokeWidth=2;" parent="1" vertex="1">
          <mxGeometry x="-693" y="286" width="120" height="40" as="geometry" />
        </mxCell>
        <mxCell id="v9dQhcSeE_KAYO5fBS5s-37" value="" style="ellipse;whiteSpace=wrap;html=1;fillColor=#e1d5e7;strokeColor=#9673a6;" parent="1" vertex="1">
          <mxGeometry x="-583" y="309" width="10" height="10" as="geometry" />
        </mxCell>
        <mxCell id="v9dQhcSeE_KAYO5fBS5s-38" value="&lt;font style=&quot;line-height: 120%&quot; face=&quot;Myriad Pro Condensed&quot;&gt;&lt;span style=&quot;font-size: 16px&quot;&gt;I know&amp;nbsp; &amp;nbsp; &amp;nbsp; &amp;nbsp;is actually&lt;br&gt;&lt;/span&gt;&lt;br&gt;&lt;/font&gt;" style="text;html=1;fillColor=none;align=left;verticalAlign=middle;whiteSpace=wrap;rounded=0;strokeWidth=2;" parent="1" vertex="1">
          <mxGeometry x="-391" y="330" width="130" height="24" as="geometry" />
        </mxCell>
        <mxCell id="v9dQhcSeE_KAYO5fBS5s-39" value="" style="ellipse;whiteSpace=wrap;html=1;fillColor=#e1d5e7;strokeColor=#9673a6;" parent="1" vertex="1">
          <mxGeometry x="-353" y="331" width="10" height="10" as="geometry" />
        </mxCell>
        <mxCell id="v9dQhcSeE_KAYO5fBS5s-40" value="" style="rounded=0;whiteSpace=wrap;html=1;fillColor=#d5e8d4;strokeColor=#82b366;" parent="1" vertex="1">
          <mxGeometry x="-283" y="331" width="8" height="10" as="geometry" />
        </mxCell>
        <mxCell id="v9dQhcSeE_KAYO5fBS5s-41" value="&lt;font style=&quot;line-height: 120%&quot; face=&quot;Myriad Pro Condensed&quot;&gt;&lt;span style=&quot;font-size: 16px&quot;&gt;Let&#39;s use this &lt;font color=&quot;#006ebb&quot;&gt;QUIC &lt;/font&gt;Connection ID (CID)&lt;br&gt;for now:&amp;nbsp; &amp;nbsp; &amp;nbsp; &amp;nbsp; &amp;nbsp; &amp;nbsp; &amp;nbsp;&lt;/span&gt;&lt;br&gt;&lt;/font&gt;" style="text;html=1;fillColor=none;align=left;verticalAlign=middle;whiteSpace=wrap;rounded=0;strokeWidth=2;" parent="1" vertex="1">
          <mxGeometry x="-847" y="160" width="127" height="40" as="geometry" />
        </mxCell>
        <mxCell id="v9dQhcSeE_KAYO5fBS5s-42" value="" style="endArrow=blockThin;dashed=1;html=1;dashPattern=1 3;strokeWidth=2;strokeColor=#B3B3B3;endFill=1;" parent="1" edge="1">
          <mxGeometry width="50" height="50" relative="1" as="geometry">
            <mxPoint x="-857" y="160" as="sourcePoint" />
            <mxPoint x="-857" y="400" as="targetPoint" />
          </mxGeometry>
        </mxCell>
        <mxCell id="v9dQhcSeE_KAYO5fBS5s-43" value="" style="endArrow=blockThin;dashed=1;html=1;dashPattern=1 3;strokeWidth=2;strokeColor=#B3B3B3;endFill=1;" parent="1" edge="1">
          <mxGeometry width="50" height="50" relative="1" as="geometry">
            <mxPoint x="-937" y="160" as="sourcePoint" />
            <mxPoint x="-937" y="400" as="targetPoint" />
          </mxGeometry>
        </mxCell>
        <mxCell id="v9dQhcSeE_KAYO5fBS5s-44" value="" style="endArrow=classic;html=1;endFill=1;strokeWidth=3;shadow=0;strokeColor=#006ebb;" parent="1" edge="1">
          <mxGeometry width="50" height="50" relative="1" as="geometry">
            <mxPoint x="-937" y="160" as="sourcePoint" />
            <mxPoint x="-857" y="180" as="targetPoint" />
          </mxGeometry>
        </mxCell>
        <mxCell id="v9dQhcSeE_KAYO5fBS5s-45" value="" style="endArrow=classic;html=1;endFill=1;strokeWidth=3;shadow=0;strokeColor=#006ebb;" parent="1" edge="1">
          <mxGeometry width="50" height="50" relative="1" as="geometry">
            <mxPoint x="-857" y="185" as="sourcePoint" />
            <mxPoint x="-937" y="205" as="targetPoint" />
          </mxGeometry>
        </mxCell>
        <mxCell id="v9dQhcSeE_KAYO5fBS5s-46" value="" style="rounded=0;whiteSpace=wrap;html=1;fillColor=#d5e8d4;strokeColor=#82b366;" parent="1" vertex="1">
          <mxGeometry x="-800" y="192" width="8" height="10" as="geometry" />
        </mxCell>
        <mxCell id="v9dQhcSeE_KAYO5fBS5s-47" value="&lt;font style=&quot;font-size: 20px;&quot; face=&quot;Myriad Pro Condensed&quot;&gt;1&lt;br style=&quot;font-size: 20px;&quot;&gt;&lt;/font&gt;" style="text;html=1;strokeColor=none;fillColor=none;align=center;verticalAlign=middle;whiteSpace=wrap;rounded=0;dashed=1;dashPattern=1 4;fontSize=20;fontColor=#808080;" parent="1" vertex="1">
          <mxGeometry x="-977" y="175" width="30" height="20" as="geometry" />
        </mxCell>
        <mxCell id="v9dQhcSeE_KAYO5fBS5s-48" value="" style="endArrow=classic;html=1;endFill=1;strokeWidth=3;shadow=0;strokeColor=#006ebb;" parent="1" edge="1">
          <mxGeometry width="50" height="50" relative="1" as="geometry">
            <mxPoint x="-937" y="210" as="sourcePoint" />
            <mxPoint x="-857" y="230" as="targetPoint" />
          </mxGeometry>
        </mxCell>
        <mxCell id="v9dQhcSeE_KAYO5fBS5s-49" value="" style="rounded=0;whiteSpace=wrap;html=1;fillColor=#d5e8d4;strokeColor=#82b366;" parent="1" vertex="1">
          <mxGeometry x="-901" y="215" width="8" height="10" as="geometry" />
        </mxCell>
        <mxCell id="v9dQhcSeE_KAYO5fBS5s-50" value="" style="endArrow=classic;html=1;endFill=1;strokeWidth=3;shadow=0;strokeColor=#006ebb;" parent="1" edge="1">
          <mxGeometry width="50" height="50" relative="1" as="geometry">
            <mxPoint x="-857" y="235" as="sourcePoint" />
            <mxPoint x="-937" y="255" as="targetPoint" />
          </mxGeometry>
        </mxCell>
        <mxCell id="v9dQhcSeE_KAYO5fBS5s-51" value="" style="rounded=0;whiteSpace=wrap;html=1;fillColor=#d5e8d4;strokeColor=#82b366;" parent="1" vertex="1">
          <mxGeometry x="-901" y="240" width="8" height="10" as="geometry" />
        </mxCell>
        <mxCell id="v9dQhcSeE_KAYO5fBS5s-52" value="&lt;font style=&quot;font-size: 20px;&quot; face=&quot;Myriad Pro Condensed&quot;&gt;2&lt;br style=&quot;font-size: 20px;&quot;&gt;&lt;/font&gt;" style="text;html=1;strokeColor=none;fillColor=none;align=center;verticalAlign=middle;whiteSpace=wrap;rounded=0;dashed=1;dashPattern=1 4;fontSize=20;fontColor=#808080;" parent="1" vertex="1">
          <mxGeometry x="-977" y="225" width="30" height="20" as="geometry" />
        </mxCell>
        <mxCell id="v9dQhcSeE_KAYO5fBS5s-53" value="" style="endArrow=blockThin;dashed=1;html=1;dashPattern=1 3;strokeWidth=2;strokeColor=#B3B3B3;endFill=1;" parent="1" edge="1">
          <mxGeometry width="50" height="50" relative="1" as="geometry">
            <mxPoint x="-1017" y="280" as="sourcePoint" />
            <mxPoint x="-1017" y="400" as="targetPoint" />
          </mxGeometry>
        </mxCell>
        <mxCell id="v9dQhcSeE_KAYO5fBS5s-54" value="&lt;font face=&quot;Myriad Pro Condensed&quot; style=&quot;font-size: 16px;&quot;&gt;&lt;font style=&quot;font-size: 16px;&quot;&gt;server&lt;/font&gt;&lt;br style=&quot;font-size: 16px;&quot;&gt;&lt;/font&gt;" style="text;html=1;strokeColor=none;fillColor=none;align=center;verticalAlign=middle;whiteSpace=wrap;rounded=0;dashed=1;dashPattern=1 4;fontSize=16;fontColor=#808080;" parent="1" vertex="1">
          <mxGeometry x="-890" y="120" width="60" height="40" as="geometry" />
        </mxCell>
        <mxCell id="v9dQhcSeE_KAYO5fBS5s-55" value="&lt;font face=&quot;Myriad Pro Condensed&quot; style=&quot;font-size: 16px&quot;&gt;&lt;font style=&quot;font-size: 16px&quot;&gt;client&lt;br&gt;&lt;/font&gt;WiFi&lt;br style=&quot;font-size: 16px&quot;&gt;&lt;/font&gt;" style="text;html=1;strokeColor=none;fillColor=none;align=center;verticalAlign=bottom;whiteSpace=wrap;rounded=0;dashed=1;dashPattern=1 4;fontSize=16;fontColor=#808080;" parent="1" vertex="1">
          <mxGeometry x="-967" y="120" width="60" height="40" as="geometry" />
        </mxCell>
        <mxCell id="v9dQhcSeE_KAYO5fBS5s-56" value="&lt;font face=&quot;Myriad Pro Condensed&quot; style=&quot;font-size: 16px&quot;&gt;&lt;font style=&quot;font-size: 16px&quot;&gt;client&lt;br&gt;&lt;/font&gt;4G&lt;br style=&quot;font-size: 16px&quot;&gt;&lt;/font&gt;" style="text;html=1;strokeColor=none;fillColor=none;align=center;verticalAlign=bottom;whiteSpace=wrap;rounded=0;dashed=1;dashPattern=1 4;fontSize=16;fontColor=#808080;" parent="1" vertex="1">
          <mxGeometry x="-1047" y="240" width="60" height="40" as="geometry" />
        </mxCell>
        <mxCell id="v9dQhcSeE_KAYO5fBS5s-59" value="" style="endArrow=classic;html=1;endFill=1;strokeWidth=3;shadow=0;strokeColor=#006ebb;" parent="1" edge="1">
          <mxGeometry width="50" height="50" relative="1" as="geometry">
            <mxPoint x="-1017" y="306" as="sourcePoint" />
            <mxPoint x="-857" y="336" as="targetPoint" />
          </mxGeometry>
        </mxCell>
        <mxCell id="v9dQhcSeE_KAYO5fBS5s-60" value="" style="endArrow=classic;html=1;endFill=1;strokeWidth=3;shadow=0;strokeColor=#006ebb;" parent="1" edge="1">
          <mxGeometry width="50" height="50" relative="1" as="geometry">
            <mxPoint x="-857" y="342" as="sourcePoint" />
            <mxPoint x="-1017" y="372" as="targetPoint" />
          </mxGeometry>
        </mxCell>
        <mxCell id="v9dQhcSeE_KAYO5fBS5s-63" value="&lt;font style=&quot;font-size: 20px&quot; face=&quot;Myriad Pro Condensed&quot;&gt;N&lt;br style=&quot;font-size: 20px&quot;&gt;&lt;/font&gt;" style="text;html=1;strokeColor=none;fillColor=none;align=center;verticalAlign=middle;whiteSpace=wrap;rounded=0;dashed=1;dashPattern=1 4;fontSize=20;fontColor=#808080;" parent="1" vertex="1">
          <mxGeometry x="-1047" y="326" width="30" height="20" as="geometry" />
        </mxCell>
        <mxCell id="v9dQhcSeE_KAYO5fBS5s-64" value="" style="endArrow=none;dashed=1;html=1;dashPattern=1 3;strokeWidth=2;" parent="1" edge="1">
          <mxGeometry width="50" height="50" relative="1" as="geometry">
            <mxPoint x="-897" y="304" as="sourcePoint" />
            <mxPoint x="-897" y="274" as="targetPoint" />
          </mxGeometry>
        </mxCell>
        <mxCell id="v9dQhcSeE_KAYO5fBS5s-66" value="" style="rounded=0;whiteSpace=wrap;html=1;fillColor=#d5e8d4;strokeColor=#82b366;" parent="1" vertex="1">
          <mxGeometry x="-901" y="189" width="8" height="10" as="geometry" />
        </mxCell>
        <mxCell id="v9dQhcSeE_KAYO5fBS5s-69" value="&lt;font style=&quot;line-height: 120%&quot; face=&quot;Myriad Pro Condensed&quot;&gt;&lt;font style=&quot;font-size: 14px&quot;&gt;The network is different,&lt;br&gt;but the CID is the same, so it&#39;s the same connection&lt;/font&gt;&lt;br&gt;&lt;/font&gt;" style="text;html=1;fillColor=none;align=left;verticalAlign=middle;whiteSpace=wrap;rounded=0;strokeWidth=2;" parent="1" vertex="1">
          <mxGeometry x="-848" y="323" width="128" height="24" as="geometry" />
        </mxCell>
        <mxCell id="v9dQhcSeE_KAYO5fBS5s-72" value="&lt;font style=&quot;line-height: 120%&quot; face=&quot;Myriad Pro Condensed&quot;&gt;&lt;font style=&quot;font-size: 12px&quot;&gt;(this is sent encrypted, so observers don&#39;t know about the new CIDs)&lt;/font&gt;&lt;br&gt;&lt;/font&gt;" style="text;html=1;fillColor=none;align=left;verticalAlign=middle;whiteSpace=wrap;rounded=0;strokeWidth=2;fontColor=#808080;" parent="1" vertex="1">
          <mxGeometry x="-388" y="250" width="98" height="40" as="geometry" />
        </mxCell>
        <mxCell id="v9dQhcSeE_KAYO5fBS5s-73" value="&lt;font style=&quot;line-height: 120%&quot; face=&quot;Myriad Pro Condensed&quot;&gt;&lt;font style=&quot;font-size: 12px&quot;&gt;(but observers don&#39;t!)&lt;/font&gt;&lt;br&gt;&lt;/font&gt;" style="text;html=1;fillColor=none;align=left;verticalAlign=middle;whiteSpace=wrap;rounded=0;strokeWidth=2;fontColor=#808080;" parent="1" vertex="1">
          <mxGeometry x="-392.25" y="346" width="98" height="13" as="geometry" />
        </mxCell>
        <mxCell id="v9dQhcSeE_KAYO5fBS5s-74" value="" style="rounded=0;whiteSpace=wrap;html=1;fillColor=#d5e8d4;strokeColor=#82b366;" parent="1" vertex="1">
          <mxGeometry x="-940" y="316" width="8" height="10" as="geometry" />
        </mxCell>
        <mxCell id="v9dQhcSeE_KAYO5fBS5s-75" value="" style="rounded=0;whiteSpace=wrap;html=1;fillColor=#d5e8d4;strokeColor=#82b366;" parent="1" vertex="1">
          <mxGeometry x="-940" y="351" width="8" height="10" as="geometry" />
        </mxCell>
        <mxCell id="v9dQhcSeE_KAYO5fBS5s-76" value="&lt;font style=&quot;line-height: 120%&quot; face=&quot;Myriad Pro Condensed&quot;&gt;&lt;span style=&quot;font-size: 16px&quot;&gt;&lt;font color=&quot;#f6921c&quot;&gt;TCP&lt;/font&gt; handshake from WiFi IP starts connection&lt;/span&gt;&lt;br&gt;&lt;/font&gt;" style="text;html=1;fillColor=none;align=left;verticalAlign=middle;whiteSpace=wrap;rounded=0;strokeWidth=2;" parent="1" vertex="1">
          <mxGeometry x="-1210" y="170" width="100" height="40" as="geometry" />
        </mxCell>
        <mxCell id="v9dQhcSeE_KAYO5fBS5s-77" value="" style="endArrow=blockThin;dashed=1;html=1;dashPattern=1 3;strokeWidth=2;strokeColor=#B3B3B3;endFill=1;" parent="1" edge="1">
          <mxGeometry width="50" height="50" relative="1" as="geometry">
            <mxPoint x="-1220" y="170" as="sourcePoint" />
            <mxPoint x="-1220" y="410" as="targetPoint" />
          </mxGeometry>
        </mxCell>
        <mxCell id="v9dQhcSeE_KAYO5fBS5s-78" value="" style="endArrow=blockThin;dashed=1;html=1;dashPattern=1 3;strokeWidth=2;strokeColor=#B3B3B3;endFill=1;" parent="1" edge="1">
          <mxGeometry width="50" height="50" relative="1" as="geometry">
            <mxPoint x="-1300" y="170" as="sourcePoint" />
            <mxPoint x="-1300" y="410" as="targetPoint" />
          </mxGeometry>
        </mxCell>
        <mxCell id="v9dQhcSeE_KAYO5fBS5s-79" value="" style="endArrow=classic;html=1;endFill=1;strokeWidth=3;shadow=0;strokeColor=#F6921C;" parent="1" edge="1">
          <mxGeometry width="50" height="50" relative="1" as="geometry">
            <mxPoint x="-1300" y="170" as="sourcePoint" />
            <mxPoint x="-1220" y="190" as="targetPoint" />
          </mxGeometry>
        </mxCell>
        <mxCell id="v9dQhcSeE_KAYO5fBS5s-80" value="" style="endArrow=classic;html=1;endFill=1;strokeWidth=3;shadow=0;strokeColor=#F6921C;" parent="1" edge="1">
          <mxGeometry width="50" height="50" relative="1" as="geometry">
            <mxPoint x="-1220" y="195" as="sourcePoint" />
            <mxPoint x="-1300" y="215" as="targetPoint" />
          </mxGeometry>
        </mxCell>
        <mxCell id="v9dQhcSeE_KAYO5fBS5s-82" value="&lt;font style=&quot;font-size: 20px;&quot; face=&quot;Myriad Pro Condensed&quot;&gt;1&lt;br style=&quot;font-size: 20px;&quot;&gt;&lt;/font&gt;" style="text;html=1;strokeColor=none;fillColor=none;align=center;verticalAlign=middle;whiteSpace=wrap;rounded=0;dashed=1;dashPattern=1 4;fontSize=20;fontColor=#808080;" parent="1" vertex="1">
          <mxGeometry x="-1340" y="185" width="30" height="20" as="geometry" />
        </mxCell>
        <mxCell id="v9dQhcSeE_KAYO5fBS5s-83" value="" style="endArrow=classic;html=1;endFill=1;strokeWidth=3;shadow=0;strokeColor=#F6921C;" parent="1" edge="1">
          <mxGeometry width="50" height="50" relative="1" as="geometry">
            <mxPoint x="-1300" y="220" as="sourcePoint" />
            <mxPoint x="-1220" y="240" as="targetPoint" />
          </mxGeometry>
        </mxCell>
        <mxCell id="v9dQhcSeE_KAYO5fBS5s-85" value="" style="endArrow=classic;html=1;endFill=1;strokeWidth=3;shadow=0;strokeColor=#F6921C;" parent="1" edge="1">
          <mxGeometry width="50" height="50" relative="1" as="geometry">
            <mxPoint x="-1220" y="245" as="sourcePoint" />
            <mxPoint x="-1300" y="265" as="targetPoint" />
          </mxGeometry>
        </mxCell>
        <mxCell id="v9dQhcSeE_KAYO5fBS5s-87" value="&lt;font style=&quot;font-size: 20px;&quot; face=&quot;Myriad Pro Condensed&quot;&gt;2&lt;br style=&quot;font-size: 20px;&quot;&gt;&lt;/font&gt;" style="text;html=1;strokeColor=none;fillColor=none;align=center;verticalAlign=middle;whiteSpace=wrap;rounded=0;dashed=1;dashPattern=1 4;fontSize=20;fontColor=#808080;" parent="1" vertex="1">
          <mxGeometry x="-1340" y="235" width="30" height="20" as="geometry" />
        </mxCell>
        <mxCell id="v9dQhcSeE_KAYO5fBS5s-88" value="" style="endArrow=blockThin;dashed=1;html=1;dashPattern=1 3;strokeWidth=2;strokeColor=#B3B3B3;endFill=1;" parent="1" edge="1">
          <mxGeometry width="50" height="50" relative="1" as="geometry">
            <mxPoint x="-1380" y="290" as="sourcePoint" />
            <mxPoint x="-1380" y="410" as="targetPoint" />
          </mxGeometry>
        </mxCell>
        <mxCell id="v9dQhcSeE_KAYO5fBS5s-89" value="&lt;font face=&quot;Myriad Pro Condensed&quot; style=&quot;font-size: 16px;&quot;&gt;&lt;font style=&quot;font-size: 16px;&quot;&gt;server&lt;/font&gt;&lt;br style=&quot;font-size: 16px;&quot;&gt;&lt;/font&gt;" style="text;html=1;strokeColor=none;fillColor=none;align=center;verticalAlign=middle;whiteSpace=wrap;rounded=0;dashed=1;dashPattern=1 4;fontSize=16;fontColor=#808080;" parent="1" vertex="1">
          <mxGeometry x="-1253" y="130" width="60" height="40" as="geometry" />
        </mxCell>
        <mxCell id="v9dQhcSeE_KAYO5fBS5s-90" value="&lt;font face=&quot;Myriad Pro Condensed&quot; style=&quot;font-size: 16px&quot;&gt;&lt;font style=&quot;font-size: 16px&quot;&gt;client&lt;br&gt;&lt;/font&gt;WiFi&lt;br style=&quot;font-size: 16px&quot;&gt;&lt;/font&gt;" style="text;html=1;strokeColor=none;fillColor=none;align=center;verticalAlign=bottom;whiteSpace=wrap;rounded=0;dashed=1;dashPattern=1 4;fontSize=16;fontColor=#808080;" parent="1" vertex="1">
          <mxGeometry x="-1330" y="130" width="60" height="40" as="geometry" />
        </mxCell>
        <mxCell id="v9dQhcSeE_KAYO5fBS5s-91" value="&lt;font face=&quot;Myriad Pro Condensed&quot; style=&quot;font-size: 16px&quot;&gt;&lt;font style=&quot;font-size: 16px&quot;&gt;client&lt;br&gt;&lt;/font&gt;4G&lt;br style=&quot;font-size: 16px&quot;&gt;&lt;/font&gt;" style="text;html=1;strokeColor=none;fillColor=none;align=center;verticalAlign=bottom;whiteSpace=wrap;rounded=0;dashed=1;dashPattern=1 4;fontSize=16;fontColor=#808080;" parent="1" vertex="1">
          <mxGeometry x="-1410" y="250" width="60" height="40" as="geometry" />
        </mxCell>
        <mxCell id="v9dQhcSeE_KAYO5fBS5s-92" value="" style="endArrow=classic;html=1;endFill=1;strokeWidth=3;shadow=0;strokeColor=#F6921C;" parent="1" edge="1">
          <mxGeometry width="50" height="50" relative="1" as="geometry">
            <mxPoint x="-1380" y="316" as="sourcePoint" />
            <mxPoint x="-1220" y="346" as="targetPoint" />
          </mxGeometry>
        </mxCell>
        <mxCell id="v9dQhcSeE_KAYO5fBS5s-93" value="" style="endArrow=classic;html=1;endFill=1;strokeWidth=3;shadow=0;strokeColor=#F6921C;" parent="1" edge="1">
          <mxGeometry width="50" height="50" relative="1" as="geometry">
            <mxPoint x="-1220" y="352" as="sourcePoint" />
            <mxPoint x="-1380" y="382" as="targetPoint" />
          </mxGeometry>
        </mxCell>
        <mxCell id="v9dQhcSeE_KAYO5fBS5s-94" value="&lt;font style=&quot;font-size: 20px&quot; face=&quot;Myriad Pro Condensed&quot;&gt;N&lt;br style=&quot;font-size: 20px&quot;&gt;&lt;/font&gt;" style="text;html=1;strokeColor=none;fillColor=none;align=center;verticalAlign=middle;whiteSpace=wrap;rounded=0;dashed=1;dashPattern=1 4;fontSize=20;fontColor=#808080;" parent="1" vertex="1">
          <mxGeometry x="-1410" y="336" width="30" height="20" as="geometry" />
        </mxCell>
        <mxCell id="v9dQhcSeE_KAYO5fBS5s-95" value="" style="endArrow=none;dashed=1;html=1;dashPattern=1 3;strokeWidth=2;" parent="1" edge="1">
          <mxGeometry width="50" height="50" relative="1" as="geometry">
            <mxPoint x="-1260" y="314" as="sourcePoint" />
            <mxPoint x="-1260" y="284" as="targetPoint" />
          </mxGeometry>
        </mxCell>
        <mxCell id="v9dQhcSeE_KAYO5fBS5s-97" value="&lt;font style=&quot;line-height: 120%&quot; face=&quot;Myriad Pro Condensed&quot;&gt;&lt;span style=&quot;font-size: 14px&quot;&gt;&lt;font color=&quot;#f6921c&quot;&gt;TCP&lt;/font&gt; data packet from unknown IP... no idea what to do with this&lt;/span&gt;&lt;br&gt;&lt;/font&gt;" style="text;html=1;fillColor=none;align=left;verticalAlign=middle;whiteSpace=wrap;rounded=0;strokeWidth=2;" parent="1" vertex="1">
          <mxGeometry x="-1211" y="336" width="101" height="24" as="geometry" />
        </mxCell>
        <mxCell id="v9dQhcSeE_KAYO5fBS5s-101" value="&lt;font style=&quot;line-height: 120%&quot; face=&quot;Myriad Pro Condensed&quot;&gt;&lt;span style=&quot;font-size: 16px&quot;&gt;My CID is:&lt;/span&gt;&lt;br&gt;&lt;/font&gt;" style="text;html=1;fillColor=none;align=left;verticalAlign=middle;whiteSpace=wrap;rounded=0;strokeWidth=2;" parent="1" vertex="1">
          <mxGeometry x="103" y="160" width="130" height="40" as="geometry" />
        </mxCell>
        <mxCell id="v9dQhcSeE_KAYO5fBS5s-102" value="" style="endArrow=blockThin;dashed=1;html=1;dashPattern=1 3;strokeWidth=2;strokeColor=#B3B3B3;endFill=1;" parent="1" edge="1">
          <mxGeometry width="50" height="50" relative="1" as="geometry">
            <mxPoint x="92.99999999999977" y="160" as="sourcePoint" />
            <mxPoint x="92.99999999999977" y="400" as="targetPoint" />
          </mxGeometry>
        </mxCell>
        <mxCell id="v9dQhcSeE_KAYO5fBS5s-103" value="" style="endArrow=blockThin;dashed=1;html=1;dashPattern=1 3;strokeWidth=2;strokeColor=#B3B3B3;endFill=1;" parent="1" edge="1">
          <mxGeometry width="50" height="50" relative="1" as="geometry">
            <mxPoint x="13" y="160" as="sourcePoint" />
            <mxPoint x="13" y="400" as="targetPoint" />
          </mxGeometry>
        </mxCell>
        <mxCell id="v9dQhcSeE_KAYO5fBS5s-104" value="" style="endArrow=classic;html=1;endFill=1;strokeWidth=3;shadow=0;strokeColor=#006ebb;" parent="1" edge="1">
          <mxGeometry width="50" height="50" relative="1" as="geometry">
            <mxPoint x="13" y="160" as="sourcePoint" />
            <mxPoint x="92.99999999999977" y="180" as="targetPoint" />
          </mxGeometry>
        </mxCell>
        <mxCell id="v9dQhcSeE_KAYO5fBS5s-105" value="" style="endArrow=classic;html=1;endFill=1;strokeWidth=3;shadow=0;strokeColor=#006ebb;" parent="1" edge="1">
          <mxGeometry width="50" height="50" relative="1" as="geometry">
            <mxPoint x="92.99999999999977" y="185" as="sourcePoint" />
            <mxPoint x="13" y="205" as="targetPoint" />
          </mxGeometry>
        </mxCell>
        <mxCell id="v9dQhcSeE_KAYO5fBS5s-106" value="" style="rounded=0;whiteSpace=wrap;html=1;fillColor=#d5e8d4;strokeColor=#82b366;" parent="1" vertex="1">
          <mxGeometry x="156" y="175" width="8" height="10" as="geometry" />
        </mxCell>
        <mxCell id="v9dQhcSeE_KAYO5fBS5s-107" value="&lt;font style=&quot;font-size: 20px;&quot; face=&quot;Myriad Pro Condensed&quot;&gt;1&lt;br style=&quot;font-size: 20px;&quot;&gt;&lt;/font&gt;" style="text;html=1;strokeColor=none;fillColor=none;align=center;verticalAlign=middle;whiteSpace=wrap;rounded=0;dashed=1;dashPattern=1 4;fontSize=20;fontColor=#808080;" parent="1" vertex="1">
          <mxGeometry x="-27" y="175" width="30" height="20" as="geometry" />
        </mxCell>
        <mxCell id="v9dQhcSeE_KAYO5fBS5s-108" value="" style="endArrow=classic;html=1;endFill=1;strokeWidth=3;shadow=0;strokeColor=#006ebb;" parent="1" edge="1">
          <mxGeometry width="50" height="50" relative="1" as="geometry">
            <mxPoint x="13" y="210" as="sourcePoint" />
            <mxPoint x="92.99999999999977" y="230" as="targetPoint" />
          </mxGeometry>
        </mxCell>
        <mxCell id="v9dQhcSeE_KAYO5fBS5s-109" value="" style="rounded=0;whiteSpace=wrap;html=1;fillColor=#d5e8d4;strokeColor=#82b366;" parent="1" vertex="1">
          <mxGeometry x="49" y="215" width="8" height="10" as="geometry" />
        </mxCell>
        <mxCell id="v9dQhcSeE_KAYO5fBS5s-110" value="" style="endArrow=classic;html=1;endFill=1;strokeWidth=3;shadow=0;strokeColor=#006ebb;" parent="1" edge="1">
          <mxGeometry width="50" height="50" relative="1" as="geometry">
            <mxPoint x="92.99999999999977" y="235" as="sourcePoint" />
            <mxPoint x="13" y="255" as="targetPoint" />
          </mxGeometry>
        </mxCell>
        <mxCell id="v9dQhcSeE_KAYO5fBS5s-112" value="&lt;font style=&quot;font-size: 20px;&quot; face=&quot;Myriad Pro Condensed&quot;&gt;2&lt;br style=&quot;font-size: 20px;&quot;&gt;&lt;/font&gt;" style="text;html=1;strokeColor=none;fillColor=none;align=center;verticalAlign=middle;whiteSpace=wrap;rounded=0;dashed=1;dashPattern=1 4;fontSize=20;fontColor=#808080;" parent="1" vertex="1">
          <mxGeometry x="-27" y="225" width="30" height="20" as="geometry" />
        </mxCell>
        <mxCell id="v9dQhcSeE_KAYO5fBS5s-113" value="" style="endArrow=blockThin;dashed=1;html=1;dashPattern=1 3;strokeWidth=2;strokeColor=#B3B3B3;endFill=1;" parent="1" edge="1">
          <mxGeometry width="50" height="50" relative="1" as="geometry">
            <mxPoint x="-67" y="280" as="sourcePoint" />
            <mxPoint x="-67" y="400" as="targetPoint" />
          </mxGeometry>
        </mxCell>
        <mxCell id="v9dQhcSeE_KAYO5fBS5s-114" value="&lt;font face=&quot;Myriad Pro Condensed&quot; style=&quot;font-size: 16px;&quot;&gt;&lt;font style=&quot;font-size: 16px;&quot;&gt;server&lt;/font&gt;&lt;br style=&quot;font-size: 16px;&quot;&gt;&lt;/font&gt;" style="text;html=1;strokeColor=none;fillColor=none;align=center;verticalAlign=middle;whiteSpace=wrap;rounded=0;dashed=1;dashPattern=1 4;fontSize=16;" parent="1" vertex="1">
          <mxGeometry x="60" y="120" width="60" height="40" as="geometry" />
        </mxCell>
        <mxCell id="v9dQhcSeE_KAYO5fBS5s-115" value="&lt;font face=&quot;Myriad Pro Condensed&quot; style=&quot;font-size: 16px&quot;&gt;&lt;font style=&quot;font-size: 16px&quot;&gt;client&lt;br&gt;&lt;/font&gt;WiFi&lt;br style=&quot;font-size: 16px&quot;&gt;&lt;/font&gt;" style="text;html=1;strokeColor=none;fillColor=none;align=center;verticalAlign=bottom;whiteSpace=wrap;rounded=0;dashed=1;dashPattern=1 4;fontSize=16;" parent="1" vertex="1">
          <mxGeometry x="-17" y="120" width="60" height="40" as="geometry" />
        </mxCell>
        <mxCell id="v9dQhcSeE_KAYO5fBS5s-116" value="&lt;font face=&quot;Myriad Pro Condensed&quot; style=&quot;font-size: 16px&quot;&gt;&lt;font style=&quot;font-size: 16px&quot;&gt;client&lt;br&gt;&lt;/font&gt;4G&lt;br style=&quot;font-size: 16px&quot;&gt;&lt;/font&gt;" style="text;html=1;strokeColor=none;fillColor=none;align=center;verticalAlign=bottom;whiteSpace=wrap;rounded=0;dashed=1;dashPattern=1 4;fontSize=16;" parent="1" vertex="1">
          <mxGeometry x="-97" y="240" width="60" height="40" as="geometry" />
        </mxCell>
        <mxCell id="v9dQhcSeE_KAYO5fBS5s-117" value="" style="ellipse;whiteSpace=wrap;html=1;fillColor=#e1d5e7;strokeColor=#9673a6;" parent="1" vertex="1">
          <mxGeometry x="183.75" y="226" width="10" height="10" as="geometry" />
        </mxCell>
        <mxCell id="v9dQhcSeE_KAYO5fBS5s-119" value="" style="endArrow=classic;html=1;endFill=1;strokeWidth=3;shadow=0;strokeColor=#006ebb;" parent="1" edge="1">
          <mxGeometry width="50" height="50" relative="1" as="geometry">
            <mxPoint x="-67" y="306" as="sourcePoint" />
            <mxPoint x="92.99999999999977" y="336" as="targetPoint" />
          </mxGeometry>
        </mxCell>
        <mxCell id="v9dQhcSeE_KAYO5fBS5s-120" value="" style="endArrow=classic;html=1;endFill=1;strokeWidth=3;shadow=0;strokeColor=#006ebb;" parent="1" edge="1">
          <mxGeometry width="50" height="50" relative="1" as="geometry">
            <mxPoint x="92.99999999999977" y="342" as="sourcePoint" />
            <mxPoint x="-67" y="372" as="targetPoint" />
          </mxGeometry>
        </mxCell>
        <mxCell id="v9dQhcSeE_KAYO5fBS5s-121" value="" style="ellipse;whiteSpace=wrap;html=1;fillColor=#e1d5e7;strokeColor=#9673a6;" parent="1" vertex="1">
          <mxGeometry x="9" y="316" width="10" height="10" as="geometry" />
        </mxCell>
        <mxCell id="v9dQhcSeE_KAYO5fBS5s-123" value="&lt;font style=&quot;font-size: 20px&quot; face=&quot;Myriad Pro Condensed&quot;&gt;N&lt;br style=&quot;font-size: 20px&quot;&gt;&lt;/font&gt;" style="text;html=1;strokeColor=none;fillColor=none;align=center;verticalAlign=middle;whiteSpace=wrap;rounded=0;dashed=1;dashPattern=1 4;fontSize=20;fontColor=#808080;" parent="1" vertex="1">
          <mxGeometry x="-97" y="326" width="30" height="20" as="geometry" />
        </mxCell>
        <mxCell id="v9dQhcSeE_KAYO5fBS5s-124" value="" style="endArrow=none;dashed=1;html=1;dashPattern=1 3;strokeWidth=2;" parent="1" edge="1">
          <mxGeometry width="50" height="50" relative="1" as="geometry">
            <mxPoint x="53" y="304" as="sourcePoint" />
            <mxPoint x="53" y="274" as="targetPoint" />
          </mxGeometry>
        </mxCell>
        <mxCell id="v9dQhcSeE_KAYO5fBS5s-125" value="&lt;font style=&quot;line-height: 120%&quot; face=&quot;Myriad Pro Condensed&quot;&gt;&lt;span style=&quot;font-size: 16px&quot;&gt;Future CIDs are:&lt;/span&gt;&lt;br&gt;&lt;/font&gt;" style="text;html=1;fillColor=none;align=left;verticalAlign=middle;whiteSpace=wrap;rounded=0;strokeWidth=2;" parent="1" vertex="1">
          <mxGeometry x="102" y="210" width="130" height="40" as="geometry" />
        </mxCell>
        <mxCell id="v9dQhcSeE_KAYO5fBS5s-126" value="" style="rounded=0;whiteSpace=wrap;html=1;fillColor=#d5e8d4;strokeColor=#82b366;" parent="1" vertex="1">
          <mxGeometry x="52" y="190" width="8" height="10" as="geometry" />
        </mxCell>
        <mxCell id="v9dQhcSeE_KAYO5fBS5s-127" value="&lt;font style=&quot;line-height: 120%&quot; face=&quot;Myriad Pro Condensed&quot;&gt;&lt;span style=&quot;font-size: 16px&quot;&gt;I switched networks, so use the next server CID&amp;nbsp;&amp;nbsp;&lt;/span&gt;&lt;br&gt;&lt;/font&gt;" style="text;html=1;fillColor=none;align=left;verticalAlign=middle;whiteSpace=wrap;rounded=0;strokeWidth=2;" parent="1" vertex="1">
          <mxGeometry x="-176" y="291" width="103" height="40" as="geometry" />
        </mxCell>
        <mxCell id="v9dQhcSeE_KAYO5fBS5s-129" value="&lt;font style=&quot;line-height: 120%&quot; face=&quot;Myriad Pro Condensed&quot;&gt;&lt;font style=&quot;font-size: 14px&quot;&gt;Client has migrated,&lt;br&gt;I need to switch to their next CID&lt;/font&gt;&lt;br&gt;&lt;/font&gt;" style="text;html=1;fillColor=none;align=left;verticalAlign=middle;whiteSpace=wrap;rounded=0;strokeWidth=2;" parent="1" vertex="1">
          <mxGeometry x="102" y="330" width="98" height="24" as="geometry" />
        </mxCell>
        <mxCell id="v9dQhcSeE_KAYO5fBS5s-134" value="&lt;font style=&quot;line-height: 120%&quot; face=&quot;Myriad Pro Condensed&quot;&gt;&lt;span style=&quot;font-size: 16px&quot;&gt;My CID is:&amp;nbsp;&lt;/span&gt;&lt;br&gt;&lt;/font&gt;" style="text;html=1;fillColor=none;align=left;verticalAlign=middle;whiteSpace=wrap;rounded=0;strokeWidth=2;" parent="1" vertex="1">
          <mxGeometry x="-73" y="140" width="82" height="40" as="geometry" />
        </mxCell>
        <mxCell id="v9dQhcSeE_KAYO5fBS5s-135" value="" style="rhombus;whiteSpace=wrap;html=1;align=left;fillColor=#fff2cc;strokeColor=#d6b656;" parent="1" vertex="1">
          <mxGeometry x="-19" y="155" width="10" height="10" as="geometry" />
        </mxCell>
        <mxCell id="v9dQhcSeE_KAYO5fBS5s-138" value="&lt;font style=&quot;line-height: 120%&quot; face=&quot;Myriad Pro Condensed&quot;&gt;&lt;span style=&quot;font-size: 16px&quot;&gt;&lt;b&gt;?&lt;/b&gt;&lt;/span&gt;&lt;br&gt;&lt;/font&gt;" style="text;html=1;fillColor=none;align=left;verticalAlign=middle;whiteSpace=wrap;rounded=0;strokeWidth=2;labelBackgroundColor=#ffffff;" parent="1" vertex="1">
          <mxGeometry x="48" y="160" width="10" height="20" as="geometry" />
        </mxCell>
        <mxCell id="v9dQhcSeE_KAYO5fBS5s-140" value="" style="rhombus;whiteSpace=wrap;html=1;align=left;fillColor=#fff2cc;strokeColor=#d6b656;" parent="1" vertex="1">
          <mxGeometry x="38" y="162" width="10" height="10" as="geometry" />
        </mxCell>
        <mxCell id="v9dQhcSeE_KAYO5fBS5s-141" value="" style="rhombus;whiteSpace=wrap;html=1;align=left;fillColor=#fff2cc;strokeColor=#d6b656;" parent="1" vertex="1">
          <mxGeometry x="38" y="192" width="10" height="10" as="geometry" />
        </mxCell>
        <mxCell id="v9dQhcSeE_KAYO5fBS5s-143" value="" style="rhombus;whiteSpace=wrap;html=1;align=left;fillColor=#fff2cc;strokeColor=#d6b656;" parent="1" vertex="1">
          <mxGeometry x="47" y="240" width="10" height="10" as="geometry" />
        </mxCell>
        <mxCell id="v9dQhcSeE_KAYO5fBS5s-144" value="&lt;font style=&quot;line-height: 120%&quot; face=&quot;Myriad Pro Condensed&quot;&gt;&lt;span style=&quot;font-size: 16px&quot;&gt;Future CIDs are:&lt;/span&gt;&lt;br&gt;&lt;/font&gt;" style="text;html=1;fillColor=none;align=left;verticalAlign=middle;whiteSpace=wrap;rounded=0;strokeWidth=2;" parent="1" vertex="1">
          <mxGeometry x="-102" y="189" width="120" height="40" as="geometry" />
        </mxCell>
        <mxCell id="v9dQhcSeE_KAYO5fBS5s-145" value="" style="shape=or;whiteSpace=wrap;html=1;labelBackgroundColor=#ffffff;fontColor=#333333;align=left;strokeColor=#666666;fillColor=#D6FFFE;" parent="1" vertex="1">
          <mxGeometry x="-19" y="204" width="10" height="10" as="geometry" />
        </mxCell>
        <mxCell id="v9dQhcSeE_KAYO5fBS5s-146" value="" style="shape=or;whiteSpace=wrap;html=1;labelBackgroundColor=#ffffff;fontColor=#333333;align=left;strokeColor=#666666;fillColor=#D6FFFE;" parent="1" vertex="1">
          <mxGeometry x="9" y="352" width="10" height="10" as="geometry" />
        </mxCell>
      </root>
    </mxGraphModel>
  </diagram>
  <diagram id="Vf9WRVVF1aCZN_WiHNYS" name="Portuguese Version">
    <mxGraphModel dx="2337" dy="378" grid="1" gridSize="10" guides="1" tooltips="1" connect="1" arrows="1" fold="1" page="1" pageScale="1" pageWidth="827" pageHeight="1169" math="0" shadow="0">
      <root>
        <mxCell id="0" />
        <mxCell id="1" parent="0" />
        <mxCell id="1SxD3UIbs8pAJNf_RlL2-1" value="&lt;font style=&quot;line-height: 120%&quot; face=&quot;Myriad Pro Condensed&quot;&gt;&lt;span style=&quot;font-size: 16px;&quot;&gt;Vamos usar este ID de conexão &lt;font color=&quot;#006ebb&quot;&gt;QUIC&lt;/font&gt; (CID) por enquanto:&lt;/span&gt;&lt;br&gt;&lt;/font&gt;" style="text;html=1;fillColor=none;align=left;verticalAlign=middle;whiteSpace=wrap;rounded=0;strokeWidth=2;" vertex="1" parent="1">
          <mxGeometry x="-1204" y="160" width="127" height="70" as="geometry" />
        </mxCell>
        <mxCell id="1SxD3UIbs8pAJNf_RlL2-2" value="" style="endArrow=blockThin;dashed=1;html=1;dashPattern=1 3;strokeWidth=2;strokeColor=#B3B3B3;endFill=1;" edge="1" parent="1">
          <mxGeometry width="50" height="50" relative="1" as="geometry">
            <mxPoint x="-1214" y="160" as="sourcePoint" />
            <mxPoint x="-1214" y="400" as="targetPoint" />
          </mxGeometry>
        </mxCell>
        <mxCell id="1SxD3UIbs8pAJNf_RlL2-3" value="" style="endArrow=blockThin;dashed=1;html=1;dashPattern=1 3;strokeWidth=2;strokeColor=#B3B3B3;endFill=1;" edge="1" parent="1">
          <mxGeometry width="50" height="50" relative="1" as="geometry">
            <mxPoint x="-1294" y="160" as="sourcePoint" />
            <mxPoint x="-1294" y="400" as="targetPoint" />
          </mxGeometry>
        </mxCell>
        <mxCell id="1SxD3UIbs8pAJNf_RlL2-4" value="" style="endArrow=classic;html=1;endFill=1;strokeWidth=3;shadow=0;strokeColor=#006ebb;" edge="1" parent="1">
          <mxGeometry width="50" height="50" relative="1" as="geometry">
            <mxPoint x="-1294" y="160" as="sourcePoint" />
            <mxPoint x="-1214" y="180" as="targetPoint" />
          </mxGeometry>
        </mxCell>
        <mxCell id="1SxD3UIbs8pAJNf_RlL2-5" value="" style="endArrow=classic;html=1;endFill=1;strokeWidth=3;shadow=0;strokeColor=#006ebb;" edge="1" parent="1">
          <mxGeometry width="50" height="50" relative="1" as="geometry">
            <mxPoint x="-1214" y="185" as="sourcePoint" />
            <mxPoint x="-1294" y="205" as="targetPoint" />
          </mxGeometry>
        </mxCell>
        <mxCell id="1SxD3UIbs8pAJNf_RlL2-6" value="" style="rounded=0;whiteSpace=wrap;html=1;fillColor=#d5e8d4;strokeColor=#82b366;" vertex="1" parent="1">
          <mxGeometry x="-1134.5" y="214" width="8" height="10" as="geometry" />
        </mxCell>
        <mxCell id="1SxD3UIbs8pAJNf_RlL2-7" value="&lt;font style=&quot;font-size: 20px;&quot; face=&quot;Myriad Pro Condensed&quot;&gt;1&lt;br style=&quot;font-size: 20px;&quot;&gt;&lt;/font&gt;" style="text;html=1;strokeColor=none;fillColor=none;align=center;verticalAlign=middle;whiteSpace=wrap;rounded=0;dashed=1;dashPattern=1 4;fontSize=20;fontColor=#808080;" vertex="1" parent="1">
          <mxGeometry x="-1334" y="175" width="30" height="20" as="geometry" />
        </mxCell>
        <mxCell id="1SxD3UIbs8pAJNf_RlL2-8" value="" style="endArrow=classic;html=1;endFill=1;strokeWidth=3;shadow=0;strokeColor=#006ebb;" edge="1" parent="1">
          <mxGeometry width="50" height="50" relative="1" as="geometry">
            <mxPoint x="-1294" y="210" as="sourcePoint" />
            <mxPoint x="-1214" y="230" as="targetPoint" />
          </mxGeometry>
        </mxCell>
        <mxCell id="1SxD3UIbs8pAJNf_RlL2-9" value="" style="rounded=0;whiteSpace=wrap;html=1;fillColor=#d5e8d4;strokeColor=#82b366;" vertex="1" parent="1">
          <mxGeometry x="-1258" y="215" width="8" height="10" as="geometry" />
        </mxCell>
        <mxCell id="1SxD3UIbs8pAJNf_RlL2-10" value="" style="endArrow=classic;html=1;endFill=1;strokeWidth=3;shadow=0;strokeColor=#006ebb;" edge="1" parent="1">
          <mxGeometry width="50" height="50" relative="1" as="geometry">
            <mxPoint x="-1214" y="235" as="sourcePoint" />
            <mxPoint x="-1294" y="255" as="targetPoint" />
          </mxGeometry>
        </mxCell>
        <mxCell id="1SxD3UIbs8pAJNf_RlL2-11" value="" style="rounded=0;whiteSpace=wrap;html=1;fillColor=#d5e8d4;strokeColor=#82b366;" vertex="1" parent="1">
          <mxGeometry x="-1258" y="240" width="8" height="10" as="geometry" />
        </mxCell>
        <mxCell id="1SxD3UIbs8pAJNf_RlL2-12" value="&lt;font style=&quot;font-size: 20px;&quot; face=&quot;Myriad Pro Condensed&quot;&gt;2&lt;br style=&quot;font-size: 20px;&quot;&gt;&lt;/font&gt;" style="text;html=1;strokeColor=none;fillColor=none;align=center;verticalAlign=middle;whiteSpace=wrap;rounded=0;dashed=1;dashPattern=1 4;fontSize=20;fontColor=#808080;" vertex="1" parent="1">
          <mxGeometry x="-1334" y="225" width="30" height="20" as="geometry" />
        </mxCell>
        <mxCell id="1SxD3UIbs8pAJNf_RlL2-13" value="" style="endArrow=blockThin;dashed=1;html=1;dashPattern=1 3;strokeWidth=2;strokeColor=#B3B3B3;endFill=1;" edge="1" parent="1">
          <mxGeometry width="50" height="50" relative="1" as="geometry">
            <mxPoint x="-1374" y="280" as="sourcePoint" />
            <mxPoint x="-1374" y="400" as="targetPoint" />
          </mxGeometry>
        </mxCell>
        <mxCell id="1SxD3UIbs8pAJNf_RlL2-14" value="&lt;font face=&quot;Myriad Pro Condensed&quot; style=&quot;font-size: 16px;&quot;&gt;&lt;font style=&quot;font-size: 16px;&quot;&gt;servidor&lt;/font&gt;&lt;br style=&quot;font-size: 16px;&quot;&gt;&lt;/font&gt;" style="text;html=1;strokeColor=none;fillColor=none;align=center;verticalAlign=middle;whiteSpace=wrap;rounded=0;dashed=1;dashPattern=1 4;fontSize=16;fontColor=#808080;" vertex="1" parent="1">
          <mxGeometry x="-1247" y="120" width="60" height="40" as="geometry" />
        </mxCell>
        <mxCell id="1SxD3UIbs8pAJNf_RlL2-15" value="&lt;font face=&quot;Myriad Pro Condensed&quot; style=&quot;font-size: 16px&quot;&gt;&lt;font style=&quot;font-size: 16px&quot;&gt;cliente&lt;br&gt;&lt;/font&gt;WiFi&lt;br style=&quot;font-size: 16px&quot;&gt;&lt;/font&gt;" style="text;html=1;strokeColor=none;fillColor=none;align=center;verticalAlign=bottom;whiteSpace=wrap;rounded=0;dashed=1;dashPattern=1 4;fontSize=16;fontColor=#808080;" vertex="1" parent="1">
          <mxGeometry x="-1324" y="120" width="60" height="40" as="geometry" />
        </mxCell>
        <mxCell id="1SxD3UIbs8pAJNf_RlL2-16" value="&lt;font face=&quot;Myriad Pro Condensed&quot; style=&quot;font-size: 16px&quot;&gt;&lt;font style=&quot;font-size: 16px&quot;&gt;cliente&lt;br&gt;&lt;/font&gt;4G&lt;br style=&quot;font-size: 16px&quot;&gt;&lt;/font&gt;" style="text;html=1;strokeColor=none;fillColor=none;align=center;verticalAlign=bottom;whiteSpace=wrap;rounded=0;dashed=1;dashPattern=1 4;fontSize=16;fontColor=#808080;" vertex="1" parent="1">
          <mxGeometry x="-1404" y="240" width="60" height="40" as="geometry" />
        </mxCell>
        <mxCell id="1SxD3UIbs8pAJNf_RlL2-17" value="" style="endArrow=classic;html=1;endFill=1;strokeWidth=3;shadow=0;strokeColor=#006ebb;" edge="1" parent="1">
          <mxGeometry width="50" height="50" relative="1" as="geometry">
            <mxPoint x="-1374" y="306" as="sourcePoint" />
            <mxPoint x="-1214" y="336" as="targetPoint" />
          </mxGeometry>
        </mxCell>
        <mxCell id="1SxD3UIbs8pAJNf_RlL2-18" value="" style="endArrow=classic;html=1;endFill=1;strokeWidth=3;shadow=0;strokeColor=#006ebb;" edge="1" parent="1">
          <mxGeometry width="50" height="50" relative="1" as="geometry">
            <mxPoint x="-1214" y="342" as="sourcePoint" />
            <mxPoint x="-1374" y="372" as="targetPoint" />
          </mxGeometry>
        </mxCell>
        <mxCell id="1SxD3UIbs8pAJNf_RlL2-19" value="&lt;font style=&quot;font-size: 20px&quot; face=&quot;Myriad Pro Condensed&quot;&gt;N&lt;br style=&quot;font-size: 20px&quot;&gt;&lt;/font&gt;" style="text;html=1;strokeColor=none;fillColor=none;align=center;verticalAlign=middle;whiteSpace=wrap;rounded=0;dashed=1;dashPattern=1 4;fontSize=20;fontColor=#808080;" vertex="1" parent="1">
          <mxGeometry x="-1404" y="326" width="30" height="20" as="geometry" />
        </mxCell>
        <mxCell id="1SxD3UIbs8pAJNf_RlL2-20" value="" style="endArrow=none;dashed=1;html=1;dashPattern=1 3;strokeWidth=2;" edge="1" parent="1">
          <mxGeometry width="50" height="50" relative="1" as="geometry">
            <mxPoint x="-1254" y="304" as="sourcePoint" />
            <mxPoint x="-1254" y="274" as="targetPoint" />
          </mxGeometry>
        </mxCell>
        <mxCell id="1SxD3UIbs8pAJNf_RlL2-21" value="" style="rounded=0;whiteSpace=wrap;html=1;fillColor=#d5e8d4;strokeColor=#82b366;" vertex="1" parent="1">
          <mxGeometry x="-1258" y="189" width="8" height="10" as="geometry" />
        </mxCell>
        <mxCell id="1SxD3UIbs8pAJNf_RlL2-22" value="&lt;font style=&quot;line-height: 120%&quot; face=&quot;Myriad Pro Condensed&quot;&gt;&lt;span style=&quot;font-size: 14px;&quot;&gt;A rede é diferente, mas o CID é o mesmo, então é a mesma conexão&lt;/span&gt;&lt;br&gt;&lt;/font&gt;" style="text;html=1;fillColor=none;align=left;verticalAlign=middle;whiteSpace=wrap;rounded=0;strokeWidth=2;" vertex="1" parent="1">
          <mxGeometry x="-1205" y="300" width="128" height="70" as="geometry" />
        </mxCell>
        <mxCell id="1SxD3UIbs8pAJNf_RlL2-23" value="" style="rounded=0;whiteSpace=wrap;html=1;fillColor=#d5e8d4;strokeColor=#82b366;" vertex="1" parent="1">
          <mxGeometry x="-1297" y="316" width="8" height="10" as="geometry" />
        </mxCell>
        <mxCell id="1SxD3UIbs8pAJNf_RlL2-24" value="" style="rounded=0;whiteSpace=wrap;html=1;fillColor=#d5e8d4;strokeColor=#82b366;" vertex="1" parent="1">
          <mxGeometry x="-1297" y="351" width="8" height="10" as="geometry" />
        </mxCell>
      </root>
    </mxGraphModel>
  </diagram>
</mxfile>
